<svg width="24" height="24" viewBox="0 0 24 24" fill="none" xmlns="http://www.w3.org/2000/svg">
<rect width="24" height="24" rx="12" fill="#C9C9C9"/>
<path d="M16.5435 11.4393C16.8261 10.8084 17 10.0841 17 9.33645C17 6.6729 14.9783 4.5 12.5 4.5C10.0217 4.5 8 6.6729 8 9.33645C8 10.0841 8.17391 10.8084 8.45652 11.4393C8.45652 11.4393 8.54348 11.6495 8.56522 11.6729L12.5 19.5L16.3913 11.7897C16.4348 11.6963 16.5435 11.4393 16.5435 11.4393ZM12.5 6.92991C13.7391 6.92991 14.7391 8.00467 14.7391 9.33645C14.7391 10.6682 13.7391 11.7664 12.5 11.7664C11.2609 11.7664 10.2609 10.6916 10.2609 9.35981C10.2609 8.02804 11.2609 6.92991 12.5 6.92991Z" fill="white"/>
</svg>
