<svg width="82" height="25" viewBox="0 0 82 25" fill="none" xmlns="http://www.w3.org/2000/svg">
<circle cx="9.5" cy="12" r="9.5" fill="#282A2C"/>
<path d="M40.18 5.38V17.64H46.3V20H37.62V5.38H40.18ZM46.8464 15.04C46.8464 11.96 49.0664 9.84 52.1264 9.84C55.1864 9.84 57.4064 11.96 57.4064 15.04C57.4064 18.12 55.1864 20.24 52.1264 20.24C49.0664 20.24 46.8464 18.12 46.8464 15.04ZM49.2864 15.04C49.2864 16.84 50.4464 18.06 52.1264 18.06C53.8064 18.06 54.9664 16.84 54.9664 15.04C54.9664 13.24 53.8064 12.02 52.1264 12.02C50.4464 12.02 49.2864 13.24 49.2864 15.04ZM58.3805 14.84C58.3805 11.96 60.2605 9.8 63.0805 9.8C64.5605 9.8 65.7205 10.42 66.3005 11.48L66.4405 10.12H68.7005V19.5C68.7005 22.8 66.7205 24.86 63.5205 24.86C60.6805 24.86 58.7405 23.24 58.4405 20.6H60.8805C61.0405 21.88 62.0205 22.64 63.5205 22.64C65.2005 22.64 66.2805 21.58 66.2805 19.94V18.3C65.6605 19.22 64.4405 19.8 63.0205 19.8C60.2205 19.8 58.3805 17.7 58.3805 14.84ZM60.8405 14.78C60.8405 16.44 61.9005 17.68 63.5005 17.68C65.1805 17.68 66.2205 16.5 66.2205 14.78C66.2205 13.1 65.2005 11.94 63.5005 11.94C61.8805 11.94 60.8405 13.16 60.8405 14.78ZM70.2456 15.04C70.2456 11.96 72.4656 9.84 75.5256 9.84C78.5856 9.84 80.8056 11.96 80.8056 15.04C80.8056 18.12 78.5856 20.24 75.5256 20.24C72.4656 20.24 70.2456 18.12 70.2456 15.04ZM72.6856 15.04C72.6856 16.84 73.8456 18.06 75.5256 18.06C77.2056 18.06 78.3656 16.84 78.3656 15.04C78.3656 13.24 77.2056 12.02 75.5256 12.02C73.8456 12.02 72.6856 13.24 72.6856 15.04Z" fill="#282A2C"/>
<path d="M34.5192 11.6362C35.1807 12.0221 35.1807 12.9779 34.5192 13.3638L19.5039 22.1227C18.8372 22.5116 18 22.0308 18 21.259L18 3.74104C18 2.96925 18.8372 2.48837 19.5039 2.87726L27 7.25L34.5192 11.6362Z" fill="#282A2C"/>
</svg>
