<svg width="24" height="24" viewBox="0 0 24 24" fill="none" xmlns="http://www.w3.org/2000/svg">
<rect width="24" height="24" rx="12" fill="#C9C9C9"/>
<path d="M14.4917 12.6641L13.1516 14.0086C12.6082 14.5539 11.6521 14.5657 11.097 14.0086L9.75686 12.6641L4.94385 17.4927C5.123 17.5755 5.32054 17.6249 5.53054 17.6249H18.7181C18.9281 17.6249 19.1255 17.5756 19.3046 17.4927L14.4917 12.6641Z" fill="white"/>
<path d="M18.718 6.375H5.53047C5.32047 6.375 5.12294 6.42444 4.94385 6.50728L10.0869 11.6674C10.0872 11.6677 10.0876 11.6678 10.088 11.6681C10.0883 11.6684 10.0884 11.6689 10.0884 11.6689L11.7607 13.3467C11.9383 13.5243 12.3102 13.5243 12.4879 13.3467L14.1598 11.6692C14.1598 11.6692 14.1602 11.6684 14.1606 11.6681C14.1606 11.6681 14.1613 11.6677 14.1616 11.6674L19.3046 6.50725C19.1255 6.42437 18.928 6.375 18.718 6.375Z" fill="white"/>
<path d="M4.27456 7.16284C4.18188 7.35028 4.125 7.55834 4.125 7.78121V16.2187C4.125 16.4416 4.18181 16.6496 4.27453 16.8371L9.09589 12.0001L4.27456 7.16284Z" fill="white"/>
<path d="M19.9746 7.16284L15.1533 12.0002L19.9746 16.8372C20.0673 16.6497 20.1242 16.4417 20.1242 16.2187V7.78128C20.1242 7.55834 20.0673 7.35028 19.9746 7.16284Z" fill="white"/>
</svg>
