<svg width="56" height="56" viewBox="0 0 56 56" fill="none" xmlns="http://www.w3.org/2000/svg">
<rect width="56" height="56" rx="28" fill="#E43333"/>
<path d="M27.5369 29.04H25.3769V26.96C25.4169 26.92 25.4569 26.9 25.4969 26.86L28.7169 24.04H23.1369V21.2H32.7769V23.78L29.6569 26.52C31.6569 27.12 33.2769 28.72 33.2769 31.24C33.2769 34.36 30.7569 36.26 27.7569 36.26C24.8769 36.26 22.4569 34.5 22.4569 31.16H25.6569C25.6569 32.62 26.5369 33.4 27.8369 33.4C29.0969 33.4 29.9569 32.54 29.9569 31.22C29.9569 30.04 29.2769 29.04 27.5369 29.04Z" fill="white"/>
</svg>
